#!OML:ASF E:\Style4\Style4.ASF
:FULLY-SPECIFIED
:DEGREES
2570
root 0.196767 17.0904 0.178711 -12.3033 -0.368027 5.42303
lowerback 0.465695 2.26365 -2.49429
upperback 0.888458 3.02579 -1.33953
thorax 0.592962 1.50251 0.0240049
lowerneck 3.46996 -4.06209 -7.43671
upperneck 10.7194 -5.82154 3.6726
head 3.24949 -3.08229 2.4048
rclavicle -7.26806e-015 9.14409e-015
rhumerus 10.3169 9.66819 -64.7875
rradius 131.316
rwrist -22.395
rhand -30.6589 37.721
rfingers 7.12502
rthumb -3.95379 7.77791
lclavicle -7.26806e-015 9.14409e-015
lhumerus 9.26683 -12.3675 60.9855
lradius 130.696
lwrist 14.7927
lhand -24.6042 15.9125
lfingers 7.12502
lthumb 1.89382 45.8838
rfemur 1.72622 2.05111 12.2666
rtibia 41.3761
rfoot -28.5582 -13.3528
rtoes -14.8727
lfemur 5.08117 2.04635 -25.2217
ltibia 35.0932
lfoot -27.034 7.7347
ltoes -17.0796
2571
root 0.19535 17.0789 0.177382 -12.4538 -0.407506 5.40494
lowerback 0.510152 2.2671 -2.43346
upperback 0.946938 3.03039 -1.32632
thorax 0.630308 1.50454 0.00326156
lowerneck 3.58335 -4.0293 -7.39637
upperneck 10.6091 -5.77946 3.62813
head 3.18373 -3.06073 2.38565
rclavicle 3.29237e-015 -9.83984e-015
rhumerus 9.91321 9.72749 -64.9664
rradius 131.249
rwrist -22.3279
rhand -30.7435 37.8849
rfingers 7.12502
rthumb -4.03548 7.94337
lclavicle 3.29237e-015 -9.83984e-015
lhumerus 8.98401 -12.418 61.3527
lradius 130.697
lwrist 14.8104
lhand -24.5952 15.7586
lfingers 7.12502
lthumb 1.90248 45.7299
rfemur 1.78973 2.07626 12.3059
rtibia 41.5326
rfoot -28.5936 -13.4126
rtoes -15.109
lfemur 5.17519 2.0674 -25.1847
ltibia 35.2141
lfoot -27.1399 7.64159
ltoes -16.6051
2572
root 0.196129 17.072 0.174868 -12.5479 -0.423081 5.41467
lowerback 0.52765 2.26721 -2.36979
upperback 0.987329 3.03127 -1.35041
thorax 0.666453 1.50503 -0.056435
lowerneck 3.69964 -3.98586 -7.27925
upperneck 10.4971 -5.72106 3.56705
head 3.11197 -3.02846 2.34728
rclavicle 9.55409e-015 -9.14409e-015
rhumerus 9.50307 9.74303 -65.2036
rradius 131.16
rwrist -22.2381
rhand -30.7738 38.1025
rfingers 7.12502
rthumb -4.06466 8.16157
lclavicle 9.55409e-015 -9.14409e-015
lhumerus 8.74338 -12.4802 61.6887
lradius 130.626
lwrist 14.8092
lhand -24.4386 15.692
lfingers 7.12502
lthumb 2.0538 45.6619
rfemur 1.79223 2.06023 12.2833
rtibia 41.6796
rfoot -28.6337 -13.4611
rtoes -15.3049
lfemur 5.23271 2.08191 -25.1947
ltibia 35.3184
lfoot -27.1814 7.51748
ltoes -16.0349
2573
root 0.196851 17.0668 0.173971 -12.6026 -0.428934 5.46641
lowerback 0.455004 2.2675 -2.3675
upperback 1.05843 3.03625 -1.35731
thorax 0.780444 1.50621 -0.0596913
lowerneck 3.66555 -3.94465 -7.2756
upperneck 10.5178 -5.66195 3.55093
head 3.12072 -2.99916 2.34189
rclavicle -6.8208e-015 1.49585e-014
rhumerus 9.21929 9.72017 -65.3704
rradius 131.042
rwrist -22.2314
rhand -30.7512 38.25
rfingers 7.12502
rthumb -4.04284 8.30863
lclavicle -6.8208e-015 1.49585e-014
lhumerus 8.54367 -12.4996 62.0321
lradius 130.547
lwrist 14.8302
lhand -24.3876 15.6448
lfingers 7.12502
lthumb 2.10299 45.6142
rfemur 1.77897 2.05533 12.2111
rtibia 41.8087
rfoot -28.7039 -13.3995
rtoes -15.0532
lfemur 5.24686 2.10758 -25.2626
ltibia 35.4121
lfoot -27.1936 7.66017
ltoes -16.5755
2574
root 0.194755 17.0609 0.172332 -12.6684 -0.495459 5.45191
lowerback 0.377984 2.28533 -2.33869
upperback 1.14989 3.065 -1.32588
thorax 0.916673 1.51901 -0.03778
lowerneck 3.63495 -3.89489 -7.29681
upperneck 10.5008 -5.59679 3.60202
head 3.11926 -2.96563 2.36428
rclavicle 2.28975e-014 -2.29099e-014
rhumerus 8.99456 9.71786 -65.5271
rradius 130.845
rwrist -22.2452
rhand -30.7731 38.3949
rfingers 7.12502
rthumb -4.06401 8.45396
lclavicle 2.28975e-014 -2.29099e-014
lhumerus 8.32275 -12.4567 62.3953
lradius 130.502
lwrist 14.9621
lhand -24.2961 15.5983
lfingers 7.12502
lthumb 2.1914 45.5668
rfemur 1.76955 2.11413 12.2564
rtibia 41.9316
rfoot -28.6896 -13.4766
rtoes -15.1129
lfemur 5.26884 2.19647 -25.2238
ltibia 35.5075
lfoot -27.1793 7.79279
ltoes -17.082
2575
root 0.194207 17.056 0.169991 -12.7677 -0.548748 5.50961
lowerback 0.389453 2.31124 -2.37375
upperback 1.21501 3.10093 -1.3166
thorax 0.974124 1.53579 -0.00756108
lowerneck 3.73147 -3.83318 -7.19679
upperneck 10.3917 -5.51325 3.5514
head 3.05213 -2.92102 2.33267
rclavicle -6.56114e-014 1.09332e-014
rhumerus 8.71814 9.68342 -65.6609
rradius 130.623
rwrist -22.2326
rhand -30.896 38.5524
rfingers 7.12502
rthumb -4.18269 8.61372
lclavicle -6.56114e-014 1.09332e-014
lhumerus 8.04352 -12.4762 62.7444
lradius 130.44
lwrist 15.1524
lhand -23.9668 15.735
lfingers 7.12502
lthumb 2.50945 45.6999
rfemur 1.78971 2.15854 12.1925
rtibia 42.0548
rfoot -28.7076 -13.4626
rtoes -15.3838
lfemur 5.33009 2.24038 -25.2789
ltibia 35.5976
lfoot -27.2456 7.74446
ltoes -16.7926
2576
root 0.194953 17.0487 0.16388 -12.8351 -0.565959 5.54837
lowerback 0.433574 2.31506 -2.39217
upperback 1.25759 3.10535 -1.28226
thorax 0.990136 1.53729 0.0368913
lowerneck 3.88466 -3.76995 -7.00809
upperneck 10.1993 -5.41729 3.3558
head 2.9362 -2.86997 2.2371
rclavicle 2.64135e-014 -2.5842e-015
rhumerus 8.50152 9.68351 -65.7284
rradius 130.28
rwrist -22.1668
rhand -31.0183 38.9099
rfingers 7.12502
rthumb -4.3008 8.97354
lclavicle 2.64135e-014 -2.5842e-015
lhumerus 7.77252 -12.4972 63.1064
lradius 130.306
lwrist 15.3407
lhand -23.4938 15.9884
lfingers 7.12502
lthumb 2.96625 45.9475
rfemur 1.7673 2.13773 12.1288
rtibia 42.1798
rfoot -28.7278 -13.4254
rtoes -15.4905
lfemur 5.3236 2.20496 -25.3372
ltibia 35.6924
lfoot -27.3707 7.70695
ltoes -16.3536
2577
root 0.193687 17.0426 0.154636 -12.8752 -0.584815 5.55101
lowerback 0.474894 2.30586 -2.39646
upperback 1.30976 3.09264 -1.24003
thorax 1.01815 1.53014 0.0818965
lowerneck 3.87217 -3.70386 -6.92169
upperneck 10.1439 -5.31413 3.21471
head 2.90414 -2.81793 2.17578
rclavicle 2.38293e-014 -1.17283e-014
rhumerus 8.36216 9.68099 -65.8133
rradius 129.874
rwrist -22.2464
rhand -31.0908 39.309
rfingers 7.12502
rthumb -4.37082 9.37406
lclavicle 2.38293e-014 -1.17283e-014
lhumerus 7.55431 -12.4673 63.4423
lradius 130.055
lwrist 15.5032
lhand -23.2488 16.1412
lfingers 7.12502
lthumb 3.20286 46.0969
rfemur 1.69622 2.10943 12.1219
rtibia 42.3012
rfoot -28.7014 -13.4694
rtoes -15.6251
lfemur 5.24827 2.1724 -25.3409
ltibia 35.8064
lfoot -27.4649 7.72696
ltoes -16.2934
2578
root 0.192963 17.0393 0.147783 -12.917 -0.625908 5.5371
lowerback 0.487756 2.31066 -2.35201
upperback 1.36242 3.09989 -1.2344
thorax 1.06682 1.53349 0.063787
lowerneck 3.85893 -3.62013 -6.86342
upperneck 10.1311 -5.20054 3.2276
head 2.8935 -2.75854 2.17175
rclavicle -1.1691e-014 1.09332e-014
rhumerus 8.19824 9.57673 -65.9622
rradius 129.459
rwrist -22.3989
rhand -31.1204 39.5102
rfingers 7.12502
rthumb -4.39938 9.57585
lclavicle -1.1691e-014 1.09332e-014
lhumerus 7.35985 -12.4674 63.7179
lradius 129.734
lwrist 15.7681
lhand -23.1332 16.1752
lfingers 7.12502
lthumb 3.31449 46.1292
rfemur 1.64039 2.10172 12.1322
rtibia 42.4101
rfoot -28.7329 -13.4305
rtoes -15.6034
lfemur 5.19783 2.21008 -25.3137
ltibia 35.9496
lfoot -27.4908 7.78996
ltoes -16.5375
2579
root 0.191827 17.0365 0.139423 -12.9244 -0.685408 5.49841
lowerback 0.462142 2.31757 -2.28085
upperback 1.40715 3.11096 -1.22629
thorax 1.13012 1.53895 0.0348832
lowerneck 3.91192 -3.52754 -6.79777
upperneck 10.0676 -5.08185 3.28115
head 2.85456 -2.69533 2.18133
rclavicle 1.34428e-014 -1.40143e-014
rhumerus 8.11801 9.48639 -66.0774
rradius 128.99
rwrist -22.4534
rhand -31.2515 39.5852
rfingers 7.12502
rthumb -4.52601 9.65356
lclavicle 1.34428e-014 -1.40143e-014
lhumerus 7.17037 -12.4106 63.9616
lradius 129.375
lwrist 16.0785
lhand -22.9155 16.1152
lfingers 7.12502
lthumb 3.52469 46.0658
rfemur 1.55149 2.10991 12.1804
rtibia 42.5018
rfoot -28.7184 -13.4417
rtoes -15.6354
lfemur 5.1024 2.28413 -25.2585
ltibia 36.1124
lfoot -27.4458 7.92634
ltoes -16.942
2580
root 0.189816 17.034 0.129269 -12.9222 -0.743111 5.47157
lowerback 0.463558 2.31085 -2.24461
upperback 1.44718 3.1027 -1.20659
thorax 1.17131 1.53454 0.0358434
lowerneck 3.91785 -3.44223 -6.75889
upperneck 9.99276 -4.96786 3.30661
head 2.82059 -2.63567 2.18532
rclavicle 2.04003e-014 -3.97569e-015
rhumerus 8.092 9.46713 -66.1497
rradius 128.415
rwrist -22.4772
rhand -31.5335 39.6972
rfingers 7.12502
rthumb -4.79826 9.77154
lclavicle 2.04003e-014 -3.97569e-015
lhumerus 7.01187 -12.3012 64.1927
lradius 128.982
lwrist 16.3673
lhand -22.7389 16.0805
lfingers 7.12502
lthumb 3.69529 46.0282
rfemur 1.45688 2.13494 12.2256
rtibia 42.5729
rfoot -28.6793 -13.4681
rtoes -15.7208
lfemur 4.98649 2.33411 -25.2119
ltibia 36.2708
lfoot -27.4686 7.92454
ltoes -16.7725
2581
root 0.187404 17.0325 0.118301 -12.967 -0.804486 5.40286
lowerback 0.548195 2.3182 -2.159
upperback 1.49009 3.11034 -1.17843
thorax 1.17067 1.53901 0.014364
lowerneck 3.92114 -3.3759 -6.71563
upperneck 9.90988 -4.87724 3.31
head 2.78487 -2.5879 2.1805
rclavicle -5.50137e-014 1.59028e-014
rhumerus 8.04352 9.37453 -66.1695
rradius 127.754
rwrist -22.5556
rhand -31.7172 39.8456
rfingers 7.12502
rthumb -4.97572 9.92405
lclavicle -5.50137e-014 1.59028e-014
lhumerus 6.88066 -12.2258 64.3977
lradius 128.504
lwrist 16.6882
lhand -22.7207 16.0005
lfingers 7.12502
lthumb 3.71285 45.9479
rfemur 1.41771 2.15511 12.321
rtibia 42.6315
rfoot -28.7232 -13.3969
rtoes -15.7313
lfemur 4.93511 2.31691 -25.1354
ltibia 36.4043
lfoot -27.5115 7.9078
ltoes -16.5032
2582
root 0.184463 17.0294 0.107064 -13.0416 -0.858092 5.31361
lowerback 0.652965 2.32247 -2.04977
upperback 1.55188 3.11381 -1.14919
thorax 1.17936 1.54155 -0.0195656
lowerneck 3.90591 -3.30096 -6.68359
upperneck 9.86644 -4.77719 3.34812
head 2.7671 -2.53531 2.18924
rclavicle 1.23246e-014 -1.14301e-014
rhumerus 8.06411 9.21983 -66.2157
rradius 126.976
rwrist -22.7228
rhand -31.739 40.1036
rfingers 7.12502
rthumb -4.99668 10.1825
lclavicle 1.23246e-014 -1.14301e-014
lhumerus 6.77157 -12.1487 64.5701
lradius 127.964
lwrist 17.022
lhand -22.7049 16.0735
lfingers 7.12502
lthumb 3.72807 46.0206
rfemur 1.4289 2.2082 12.4548
rtibia 42.6842
rfoot -28.8135 -13.2764
rtoes -15.2897
lfemur 4.93132 2.28603 -25.028
ltibia 36.4941
lfoot -27.5576 7.84001
ltoes -16.0044
2583
root 0.182735 17.0271 0.0970553 -13.0342 -0.916703 5.25904
lowerback 0.650529 2.33902 -1.94791
upperback 1.60012 3.13703 -1.1476
thorax 1.23516 1.55377 -0.0731067
lowerneck 3.853 -3.23597 -6.65401
upperneck 9.92302 -4.69374 3.44044
head 2.79316 -2.49056 2.21581
rclavicle 8.4732e-015 -1.09332e-014
rhumerus 8.10895 9.06365 -66.2943
rradius 126.131
rwrist -22.841
rhand -31.8348 40.4833
rfingers 7.12502
rthumb -5.08925 10.5644
lclavicle 8.4732e-015 -1.09332e-014
lhumerus 6.71089 -12.0707 64.7331
lradius 127.282
lwrist 17.2809
lhand -22.5764 16.0458
lfingers 7.12502
lthumb 3.85219 45.9907
rfemur 1.35229 2.24063 12.5364
rtibia 42.7356
rfoot -28.7773 -13.2694
rtoes -15.1604
lfemur 4.86167 2.23999 -24.9711
ltibia 36.5516
lfoot -27.6103 7.79772
ltoes -15.6821
2584
root 0.180969 17.0271 0.0873605 -13.0119 -1.01911 5.25482
lowerback 0.633523 2.37379 -1.9062
upperback 1.6442 3.18489 -1.14432
thorax 1.29139 1.57762 -0.0908594
lowerneck 3.82728 -3.17573 -6.61132
upperneck 9.94712 -4.61461 3.4914
head 2.80156 -2.44829 2.22639
rclavicle 1.46355e-014 1.78906e-015
rhumerus 8.16294 8.93625 -66.3397
rradius 125.267
rwrist -22.9218
rhand -32.0105 40.6126
rfingers 7.12502
rthumb -5.25883 10.6979
lclavicle 1.46355e-014 1.78906e-015
lhumerus 6.67349 -12.016 64.9224
lradius 126.536
lwrist 17.6066
lhand -22.5215 16.1097
lfingers 7.12502
lthumb 3.90518 46.0536
rfemur 1.23608 2.2663 12.5454
rtibia 42.778
rfoot -28.7141 -13.2648
rtoes -15.5036
lfemur 4.7891 2.27318 -24.9512
ltibia 36.6044
lfoot -27.6651 7.70854
ltoes -15.2181
